<?xml version="1.0" encoding="UTF-8"?>
<svg version="1.1" viewBox="0 0 88.924 71.767" xmlns="http://www.w3.org/2000/svg" xmlns:cc="http://creativecommons.org/ns#" xmlns:dc="http://purl.org/dc/elements/1.1/" xmlns:rdf="http://www.w3.org/1999/02/22-rdf-syntax-ns#">
<metadata>
<rdf:RDF>
<cc:Work rdf:about="">
<dc:format>image/svg+xml</dc:format>
<dc:type rdf:resource="http://purl.org/dc/dcmitype/StillImage"/>
<dc:title/>
</cc:Work>
</rdf:RDF>
</metadata>
<g transform="translate(20.15 -1001.3)">
<g transform="matrix(1.1533 0 0 1.1557 -379.09 391.21)">
<g transform="matrix(2.763 0 0 2.763 -594.34 -968.58)">
<path d="m334.49 550.23c0-3.9878 3.228-7.2207 7.2086-7.2207 3.9802 0 7.2071 3.2329 7.2071 7.2207" fill="none" stroke="#d21f15" stroke-linejoin="round" stroke-width=".8899"/>
<path d="m334.49 550.42c-2.9593 0-5.3601 2.4633-5.3601 5.5032 0 3.0399 2.4008 5.5032 5.3601 5.5032" fill="none" stroke="#d21f15" stroke-linecap="square" stroke-linejoin="round" stroke-width=".88643"/>
<path d="m348.91 550.42c2.9593 0 5.3601 2.4633 5.3601 5.5032 0 3.0399-2.4008 5.5032-5.3601 5.5032" fill="none" stroke="#d21f15" stroke-linecap="square" stroke-linejoin="round" stroke-width=".88643"/>
<path d="m334.46 561.43h14.468" fill="none" stroke="#d21f15" stroke-linecap="square" stroke-linejoin="round" stroke-width=".88643"/>
<path d="m334.49 550.23c0-3.9878 3.228-7.2207 7.2086-7.2207 3.9802 0 7.2071 3.2329 7.2071 7.2207" fill="none" stroke="#d21f15" stroke-linejoin="round" stroke-width=".8899"/>
<path d="m334.49 550.42c-2.9593 0-5.3601 2.4633-5.3601 5.5032 0 3.0399 2.4008 5.5032 5.3601 5.5032" fill="none" stroke="#d21f15" stroke-linecap="square" stroke-linejoin="round" stroke-width=".88643"/>
<path d="m348.91 550.42c2.9593 0 5.3601 2.4633 5.3601 5.5032 0 3.0399-2.4008 5.5032-5.3601 5.5032" fill="none" stroke="#d21f15" stroke-linecap="square" stroke-linejoin="round" stroke-width=".88643"/>
<path d="m334.46 561.43h14.468" fill="none" stroke="#d21f15" stroke-linecap="square" stroke-linejoin="round" stroke-width=".88643"/>
<ellipse cx="341.7" cy="553.92" rx=".26012" ry=".25958" color="#000000" color-rendering="auto" fill="none" image-rendering="auto" shape-rendering="auto" solid-color="#000000" style="isolation:auto;mix-blend-mode:normal"/>
<path d="m335.14 550.19 3.282 5.4764 3.2821 5.4764 3.282-5.4764 3.282-5.4764h-6.5641z" color="#000000" color-rendering="auto" fill="none" image-rendering="auto" shape-rendering="auto" solid-color="#000000" stroke="#d21f15" stroke-linecap="round" stroke-linejoin="round" stroke-width=".91576" style="isolation:auto;mix-blend-mode:normal"/>
<circle cx="348.39" cy="550.02" r="1.407" color="#000000" color-rendering="auto" fill="#fff" image-rendering="auto" shape-rendering="auto" solid-color="#000000" stroke="#d21f15" stroke-linecap="round" stroke-linejoin="round" stroke-width=".88349" style="isolation:auto;mix-blend-mode:normal"/>
<circle cx="335.01" cy="550.02" r="1.407" color="#000000" color-rendering="auto" fill="#fff" image-rendering="auto" shape-rendering="auto" solid-color="#000000" stroke="#d21f15" stroke-linecap="round" stroke-linejoin="round" stroke-width=".88349" style="isolation:auto;mix-blend-mode:normal"/>
<circle cx="341.7" cy="561.31" r="1.407" color="#000000" color-rendering="auto" fill="#fff" image-rendering="auto" shape-rendering="auto" solid-color="#000000" stroke="#d21f15" stroke-linecap="round" stroke-linejoin="round" stroke-width=".88349" style="isolation:auto;mix-blend-mode:normal"/>
</g>
</g>
</g>
</svg>
